<?xml version="1.0" encoding="UTF-8" standalone="no"?>
<svg width="177px" height="30px" viewBox="0 0 177 30" version="1.1" xmlns="http://www.w3.org/2000/svg" xmlns:xlink="http://www.w3.org/1999/xlink" xmlns:sketch="http://www.bohemiancoding.com/sketch/ns">
    <!-- Generator: Sketch 3.1 (8751) - http://www.bohemiancoding.com/sketch -->
    <title>ratings 2</title>
    <desc>Created with Sketch.</desc>
    <defs></defs>
    <g id="Capítulo" stroke="none" stroke-width="1" fill="none" fill-rule="evenodd" sketch:type="MSPage">
        <g id="Desktop" sketch:type="MSArtboardGroup" transform="translate(-803.000000, -1640.000000)">
            <g id="ratings-2" sketch:type="MSLayerGroup" transform="translate(803.000000, 1640.000000)">
                <g id="estrelas" sketch:type="MSShapeGroup">
                    <g id="star" fill="#30302A">
                        <path d="M31.2995787,11.2259375 C30.8458293,9.8478125 29.558528,8.90125 28.0965867,8.869375 L21.2368533,8.731875 L18.9850987,2.2940625 C18.498624,0.9221875 17.193072,0 15.7339627,0 C14.2707627,0 12.9645813,0.92375 12.4828267,2.29875 L10.229184,8.731875 L3.36976533,8.869375 C1.90625067,8.9009375 0.619578667,9.8484375 0.163941333,11.234375 C-0.282256,12.6209375 0.200757333,14.1390625 1.363136,15.0096875 L6.82826667,19.1271875 L4.843664,25.6465625 C4.419808,27.0384375 4.93082667,28.548125 6.11460267,29.401875 C7.281072,30.243125 8.93244267,30.256875 10.10552,29.44125 L15.7342773,25.554375 L21.3671253,29.444375 C21.9524053,29.845 22.6320853,30.0571875 23.33096,30.0571875 C24.0518613,30.0571875 24.749792,29.8325 25.353952,29.4028125 C26.5355253,28.5503125 27.046544,27.0425 26.6252053,25.6465625 L24.6384,19.1271875 L30.1057333,15.010625 C31.27,14.133125 31.7498667,12.615 31.2995787,11.2259375 L31.2995787,11.2259375 Z" id="Shape"></path>
                    </g>
                    <g id="star" transform="translate(36.383333, 0.000000)" fill="#30302A">
                        <path d="M31.2995787,11.2259375 C30.8458293,9.8478125 29.558528,8.90125 28.0965867,8.869375 L21.2368533,8.731875 L18.9850987,2.2940625 C18.498624,0.9221875 17.193072,0 15.7339627,0 C14.2707627,0 12.9645813,0.92375 12.4828267,2.29875 L10.229184,8.731875 L3.36976533,8.869375 C1.90625067,8.9009375 0.619578667,9.8484375 0.163941333,11.234375 C-0.282256,12.6209375 0.200757333,14.1390625 1.363136,15.0096875 L6.82826667,19.1271875 L4.843664,25.6465625 C4.419808,27.0384375 4.93082667,28.548125 6.11460267,29.401875 C7.281072,30.243125 8.93244267,30.256875 10.10552,29.44125 L15.7342773,25.554375 L21.3671253,29.444375 C21.9524053,29.845 22.6320853,30.0571875 23.33096,30.0571875 C24.0518613,30.0571875 24.749792,29.8325 25.353952,29.4028125 C26.5355253,28.5503125 27.046544,27.0425 26.6252053,25.6465625 L24.6384,19.1271875 L30.1057333,15.010625 C31.27,14.133125 31.7498667,12.615 31.2995787,11.2259375 L31.2995787,11.2259375 Z" id="Shape"></path>
                    </g>
                    <g id="star" transform="translate(145.533333, 0.000000)" fill="#000000">
                        <path d="M31.2995787,11.2259375 C30.8458293,9.8478125 29.558528,8.90125 28.0965867,8.869375 L21.2368533,8.731875 L18.9850987,2.2940625 C18.498624,0.9221875 17.193072,0 15.7339627,0 C14.2707627,0 12.9645813,0.92375 12.4828267,2.29875 L10.229184,8.731875 L3.36976533,8.869375 C1.90625067,8.9009375 0.619578667,9.8484375 0.163941333,11.234375 C-0.282256,12.6209375 0.200757333,14.1390625 1.363136,15.0096875 L6.82826667,19.1271875 L4.843664,25.6465625 C4.419808,27.0384375 4.93082667,28.548125 6.11460267,29.401875 C7.281072,30.243125 8.93244267,30.256875 10.10552,29.44125 L15.7342773,25.554375 L21.3671253,29.444375 C21.9524053,29.845 22.6320853,30.0571875 23.33096,30.0571875 C24.0518613,30.0571875 24.749792,29.8325 25.353952,29.4028125 C26.5355253,28.5503125 27.046544,27.0425 26.6252053,25.6465625 L24.6384,19.1271875 L30.1057333,15.010625 C31.27,14.133125 31.7498667,12.615 31.2995787,11.2259375 L31.2995787,11.2259375 Z M28.4773333,12.8784375 L21.515648,18.1203125 L24.045568,26.4171875 C24.1393387,26.7278125 24.0317227,27.05 23.778416,27.2321875 C23.51032,27.42125 23.1635573,27.4228125 22.9017547,27.244375 L15.7339627,22.2959375 L8.563968,27.246875 C8.30845867,27.424375 7.95099733,27.4209375 7.69800533,27.2378125 C7.436832,27.0490625 7.32890133,26.7284375 7.422672,26.4209375 L9.94913067,18.1203125 L2.98901867,12.8771875 C2.73634133,12.6871875 2.63250133,12.354375 2.72847467,12.0565625 C2.82665067,11.7575 3.10796267,11.55125 3.42609067,11.544375 L12.157776,11.3690625 L15.027536,3.176875 C15.1326347,2.8771875 15.416464,2.675625 15.7342773,2.675625 C16.0514613,2.675625 16.3365493,2.87875 16.441648,3.176875 L19.3073173,11.3690625 L28.0408907,11.544375 C28.3593333,11.55125 28.6403307,11.7575 28.737248,12.0525 C28.8338507,12.3509375 28.726864,12.6903125 28.4773333,12.8784375 L28.4773333,12.8784375 Z" id="Shape"></path>
                    </g>
                    <g id="star" transform="translate(109.150000, 0.000000)">
                        <path d="M31.2995787,11.2259375 C30.8458293,9.8478125 29.558528,8.90125 28.0965867,8.869375 L21.2368533,8.731875 L18.9850987,2.2940625 C18.498624,0.9221875 17.193072,0 15.7339627,0 C14.2707627,0 12.9645813,0.92375 12.4828267,2.29875 L10.229184,8.731875 L3.36976533,8.869375 C1.90625067,8.9009375 0.619578667,9.8484375 0.163941333,11.234375 C-0.282256,12.6209375 0.200757333,14.1390625 1.363136,15.0096875 L6.82826667,19.1271875 L4.843664,25.6465625 C4.419808,27.0384375 4.93082667,28.548125 6.11460267,29.401875 C7.281072,30.243125 8.93244267,30.256875 10.10552,29.44125 L15.7342773,25.554375 L21.3671253,29.444375 C21.9524053,29.845 22.6320853,30.0571875 23.33096,30.0571875 C24.0518613,30.0571875 24.749792,29.8325 25.353952,29.4028125 C26.5355253,28.5503125 27.046544,27.0425 26.6252053,25.6465625 L24.6384,19.1271875 L30.1057333,15.010625 C31.27,14.133125 31.7498667,12.615 31.2995787,11.2259375 L31.2995787,11.2259375 Z" id="Shape" fill="#000000"></path>
                        <path d="M28.4773333,12.8784375 L21.515648,18.1203125 L24.045568,26.4171875 C24.1393387,26.7278125 24.0317227,27.05 23.778416,27.2321875 C23.51032,27.42125 23.1635573,27.4228125 22.9017547,27.244375 L15.7339627,22.2959375 L8.563968,27.246875 C8.30845867,27.424375 7.95099733,27.4209375 7.69800533,27.2378125 C7.436832,27.0490625 7.32890133,26.7284375 7.422672,26.4209375 L9.94913067,18.1203125 L2.98901867,12.8771875 C2.73634133,12.6871875 2.63250133,12.354375 2.72847467,12.0565625 C2.82665067,11.7575 3.10796267,11.55125 3.42609067,11.544375 L12.157776,11.3690625 L15.027536,3.176875 C15.1326347,2.8771875 15.416464,2.675625 15.7342773,2.675625 C16.0514613,2.675625 16.3365493,2.87875 16.441648,3.176875 L19.3073173,11.3690625 L28.0408907,11.544375 C28.3593333,11.55125 28.6403307,11.7575 28.737248,12.0525 C28.8338507,12.3509375 28.726864,12.6903125 28.4773333,12.8784375 L28.4773333,12.8784375 Z" id="Path" fill="#F3F3F3"></path>
                    </g>
                    <g id="star" transform="translate(72.766667, 0.000000)" fill="#30302A">
                        <path d="M31.2995787,11.2259375 C30.8458293,9.8478125 29.558528,8.90125 28.0965867,8.869375 L21.2368533,8.731875 L18.9850987,2.2940625 C18.498624,0.9221875 17.193072,0 15.7339627,0 C14.2707627,0 12.9645813,0.92375 12.4828267,2.29875 L10.229184,8.731875 L3.36976533,8.869375 C1.90625067,8.9009375 0.619578667,9.8484375 0.163941333,11.234375 C-0.282256,12.6209375 0.200757333,14.1390625 1.363136,15.0096875 L6.82826667,19.1271875 L4.843664,25.6465625 C4.419808,27.0384375 4.93082667,28.548125 6.11460267,29.401875 C7.281072,30.243125 8.93244267,30.256875 10.10552,29.44125 L15.7342773,25.554375 L21.3671253,29.444375 C21.9524053,29.845 22.6320853,30.0571875 23.33096,30.0571875 C24.0518613,30.0571875 24.749792,29.8325 25.353952,29.4028125 C26.5355253,28.5503125 27.046544,27.0425 26.6252053,25.6465625 L24.6384,19.1271875 L30.1057333,15.010625 C31.27,14.133125 31.7498667,12.615 31.2995787,11.2259375 L31.2995787,11.2259375 Z" id="Shape"></path>
                    </g>
                </g>
            </g>
        </g>
    </g>
</svg>