<?xml version="1.0" encoding="UTF-8" standalone="no"?>
<svg width="30px" height="30px" viewBox="0 0 30 30" version="1.1" xmlns="http://www.w3.org/2000/svg" xmlns:xlink="http://www.w3.org/1999/xlink" xmlns:sketch="http://www.bohemiancoding.com/sketch/ns">
    <!-- Generator: Sketch 3.0.4 (8054) - http://www.bohemiancoding.com/sketch -->
    <title>btn-facebook 2</title>
    <desc>Created with Sketch.</desc>
    <defs></defs>
    <g id="Quadrinhos" stroke="none" stroke-width="1" fill="none" fill-rule="evenodd" sketch:type="MSPage">
        <g id="Social-1" sketch:type="MSLayerGroup">
            <g id="btn-facebook-2" sketch:type="MSShapeGroup">
                <g id="Rectangle-71-+-facebook-3">
                    <rect id="Rectangle-71" fill="#3B5998" x="0" y="0" width="30" height="30"></rect>
                    <g id="facebook-3" transform="translate(10.500000, 7.500000)" fill="#F3F3F3">
                        <g id="facebook_1_">
                            <path d="M3.45758885,0.397009298 C2.80043907,0.709693403 2.34023922,1.12774589 2.08790931,1.64056151 C1.85195939,2.12258766 1.73651943,2.80474533 1.73651943,3.73013975 L1.73651943,4.04487649 L0.0369,4.04487649 L0.0369,7.05505968 L1.73651943,7.05505968 L1.73651943,15.0907675 L5.82059805,15.0907675 L5.82059805,7.05540179 L8.10794728,7.05540179 L8.10794728,4.04521859 L5.82059805,4.04521859 L5.82059805,3.77803447 C5.82059805,3.19816625 5.956318,3.05242945 5.973088,3.03669262 C6.06083797,2.95390317 6.2667579,2.90840319 6.5510678,2.90840319 C6.95705766,2.90840319 7.38995752,2.95492949 7.83728737,3.0490084 L8.35559719,3.15745573 L8.95853699,0.431561918 L8.52173714,0.310798801 C6.75152773,-0.17704314 4.70831842,-0.198253659 3.45758885,0.397009298 L3.45758885,0.397009298 Z" id="Shape"></path>
                        </g>
                    </g>
                </g>
            </g>
        </g>
    </g>
</svg>