<?xml version="1.0" encoding="UTF-8" standalone="no"?>
<svg width="30px" height="30px" viewBox="0 0 30 30" version="1.1" xmlns="http://www.w3.org/2000/svg" xmlns:xlink="http://www.w3.org/1999/xlink" xmlns:sketch="http://www.bohemiancoding.com/sketch/ns">
    <!-- Generator: Sketch 3.0.4 (8054) - http://www.bohemiancoding.com/sketch -->
    <title>btn-google 2</title>
    <desc>Created with Sketch.</desc>
    <defs></defs>
    <g id="Quadrinhos" stroke="none" stroke-width="1" fill="none" fill-rule="evenodd" sketch:type="MSPage">
        <g id="Social-1" sketch:type="MSLayerGroup" transform="translate(-110.000000, 0.000000)">
            <g id="btn-google-2" transform="translate(110.000000, 0.000000)" sketch:type="MSShapeGroup">
                <g id="Rectangle-73-+-1408691805_40-google-plus">
                    <rect id="Rectangle-73" fill="#DD4B39" x="0" y="0" width="30" height="30"></rect>
                    <g id="1408691805_40-google-plus" transform="translate(7.500000, 8.250000)" fill="#F2F2F2">
                        <g id="Group">
                            <path d="M14.7654,5.65313333 L12.5118,5.65313333 L12.5118,3.27496667 C12.5118,3.09351667 12.3723,2.94595 12.2007,2.94595 L11.559,2.94595 C11.3862,2.94595 11.2467,3.09351667 11.2467,3.27496667 L11.2467,5.65313333 L8.9931,5.65313333 C8.8215,5.65313333 8.6814,5.80101667 8.6814,5.98278333 L8.6814,6.66013333 C8.6814,6.8419 8.8215,6.98915 8.9931,6.98915 L11.2467,6.98915 L11.2467,9.36858333 C11.2467,9.55035 11.3862,9.6976 11.559,9.6976 L12.2007,9.6976 C12.3723,9.6976 12.5118,9.55035 12.5118,9.36858333 L12.5118,6.98883333 L14.7654,6.98883333 C14.937,6.98883333 15.0771,6.84158333 15.0771,6.65981667 L15.0771,5.98246667 C15.0771,5.8007 14.937,5.65313333 14.7654,5.65313333 L14.7654,5.65313333 Z" id="Shape"></path>
                            <path d="M7.1922,7.7387 C6.7182,7.38435 6.2874,6.8647 6.2799,6.7051 C6.2799,6.4144 6.3045,6.27538333 6.9222,5.76745 C7.7208,5.10751667 8.1606,4.23985 8.1606,3.3231 C8.1606,2.49185 7.92,1.75338333 7.5105,1.23468333 L7.8282,1.23468333 C7.8939,1.23468333 7.9584,1.21315 8.0109,1.17261667 L8.8974,0.494633333 C9.0075,0.41135 9.0537,0.262833333 9.0117,0.126983333 C8.9694,-0.00855 8.8506,-0.101016667 8.7153,-0.101016667 L4.7505,-0.101016667 C4.3167,-0.101016667 3.876,-0.0202666667 3.4434,0.1368 C1.9986,0.662783333 0.9882,1.96238333 0.9882,3.2965 C0.9882,5.18668333 2.3754,6.61928333 4.2297,6.66425 C4.1934,6.81403333 4.1751,6.9616 4.1751,7.10631667 C4.1751,7.39765 4.245,7.67346667 4.389,7.9401 L4.338,7.9401 C2.5704,7.9401 0.975,8.85558333 0.3693,10.2178833 C0.2115,10.5722333 0.1311,10.9303833 0.1311,11.2841 C0.1311,11.628 0.2148,11.9589167 0.3789,12.2698833 C0.7596,12.9887167 1.5771,13.5463667 2.682,13.8408667 C3.2523,13.9928667 3.8652,14.07045 4.5015,14.07045 C5.0733,14.07045 5.6184,13.99255 6.1224,13.83865 C7.6938,13.357 8.7099,12.1359333 8.7099,10.72645 C8.7096,9.37396667 8.2977,8.56425 7.1922,7.7387 L7.1922,7.7387 Z M2.1849,10.83475 C2.1849,9.85086667 3.369,8.98795 4.7187,8.98795 L4.755,8.98795 C5.0487,8.99175 5.3352,9.03735 5.6052,9.12475 C5.6979,9.1922 5.7873,9.25648333 5.8731,9.31823333 C6.4983,9.7679 6.9114,10.0646167 7.0263,10.5408833 C7.0533,10.6609 7.0668,10.7809167 7.0668,10.8971333 C7.0668,12.1223167 6.2013,12.7433 4.4934,12.7433 C3.1989,12.7433 2.1849,11.9054 2.1849,10.83475 L2.1849,10.83475 Z M3.4131,1.53836667 C3.624,1.28408333 3.9003,1.14981667 4.2105,1.14981667 L4.2456,1.15045 C5.1219,1.17768333 5.9604,2.20843333 6.1146,3.44818333 C6.2013,4.14231667 6.0549,4.79496667 5.7243,5.1927 C5.5128,5.44761667 5.2404,5.58188333 4.9176,5.58188333 C4.9176,5.58188333 4.9176,5.58188333 4.917,5.58188333 L4.9029,5.58188333 C4.0446,5.55401667 3.1881,4.484 3.0348,3.24583333 C2.9487,2.5536 3.0867,1.93135 3.4131,1.53836667 L3.4131,1.53836667 Z" id="Shape"></path>
                        </g>
                    </g>
                </g>
            </g>
        </g>
    </g>
</svg>