<?xml version="1.0" encoding="UTF-8" standalone="no"?>
<svg width="30px" height="30px" viewBox="0 0 30 30" version="1.1" xmlns="http://www.w3.org/2000/svg" xmlns:xlink="http://www.w3.org/1999/xlink" xmlns:sketch="http://www.bohemiancoding.com/sketch/ns">
    <!-- Generator: Sketch 3.0.4 (8054) - http://www.bohemiancoding.com/sketch -->
    <title>Rectangle 72 + twitter 3</title>
    <desc>Created with Sketch.</desc>
    <defs></defs>
    <g id="Quadrinhos" stroke="none" stroke-width="1" fill="none" fill-rule="evenodd" sketch:type="MSPage">
        <g id="Social-1" sketch:type="MSLayerGroup" transform="translate(-55.000000, 0.000000)">
            <g id="btn-twitter-2" transform="translate(55.000000, 0.000000)" sketch:type="MSShapeGroup">
                <g id="Rectangle-72-+-twitter-3">
                    <rect id="Rectangle-72" fill="#55ACEE" x="0" y="0" width="30" height="30"></rect>
                    <g id="twitter-3" transform="translate(7.500000, 8.250000)" fill="#F3F3F3">
                        <g id="twitter">
                            <path d="M13.5363158,3.20847581 C13.5434211,3.34708065 13.5461842,3.48691935 13.5461842,3.62716935 C13.5461842,7.90623387 10.4202632,12.8400726 4.70407895,12.8400726 C2.94947368,12.8400726 1.31565789,12.3041613 -0.0603947368,11.3853387 C0.181578947,11.4133065 0.430263158,11.4309919 0.680921053,11.4309919 C2.13710526,11.4309919 3.47684211,10.9127661 4.54105263,10.0437097 C3.17960526,10.018621 2.03289474,9.08129032 1.63697368,7.79518548 C1.82684211,7.83302419 2.02184211,7.854 2.22039474,7.854 C2.50460526,7.854 2.77934211,7.81369355 3.03947368,7.74007258 C1.61763158,7.44106452 0.545921053,6.13398387 0.545921053,4.56367742 L0.545921053,4.52337097 C0.965131579,4.76520968 1.44473684,4.91080645 1.95394737,4.92725806 C1.12026316,4.34651613 0.572368421,3.35448387 0.572368421,2.23166129 C0.572368421,1.63858065 0.725526316,1.08292742 0.993157895,0.604596774 C2.52473684,2.56357258 4.81539474,3.85214516 7.39855263,3.98704839 C7.34486842,3.75096774 7.31881579,3.50254839 7.31881579,3.24878226 C7.31881579,1.4621371 8.70986842,0.0123387097 10.4253947,0.0123387097 C11.3198684,0.0123387097 12.1278947,0.405532258 12.6947368,1.03357258 C13.4017105,0.889209677 14.0676316,0.619814516 14.6680263,0.248419355 C14.4355263,1.00395968 13.9425,1.63858065 13.3018421,2.03917742 C13.9298684,1.96185484 14.5278947,1.78787903 15.0860526,1.52917742 C14.6703947,2.18189516 14.1442105,2.75194355 13.5363158,3.20847581 L13.5363158,3.20847581 Z" id="Shape"></path>
                        </g>
                    </g>
                </g>
            </g>
        </g>
    </g>
</svg>