<?xml version="1.0" encoding="UTF-8" standalone="no"?>
<svg width="30px" height="30px" viewBox="0 0 30 30" version="1.1" xmlns="http://www.w3.org/2000/svg" xmlns:xlink="http://www.w3.org/1999/xlink" xmlns:sketch="http://www.bohemiancoding.com/sketch/ns">
    <!-- Generator: Sketch 3.1.1 (8761) - http://www.bohemiancoding.com/sketch -->
    <title>Social-1 4</title>
    <desc>Created with Sketch.</desc>
    <defs></defs>
    <g id="História" stroke="none" stroke-width="1" fill="none" fill-rule="evenodd" sketch:type="MSPage">
        <g id="Mobile" sketch:type="MSArtboardGroup" transform="translate(-254.000000, -699.000000)">
            <g id="Social-1-4" sketch:type="MSLayerGroup" transform="translate(254.000000, 699.000000)">
                <g id="share-2" sketch:type="MSShapeGroup">
                    <g id="normal-2" fill="#252525">
                        <rect id="Rectangle-148" x="0" y="0" width="30" height="30" rx="8"></rect>
                    </g>
                    <g id="share" transform="translate(4.000000, 4.500000)" fill="#F2F2F2">
                        <g id="Group">
                            <path d="M5.44956081,12.8742 C5.44956081,13.5526786 5.99412162,14.1027714 6.66577703,14.1027714 C7.33743243,14.1027714 7.88199324,13.5526786 7.88199324,12.8742 C7.88199324,10.15015 10.0757432,7.93411429 12.7720946,7.93411429 L18.3977027,7.93411429 L14.9558108,11.4112786 C14.4808784,11.8907286 14.4808784,12.6684143 14.9558108,13.1481714 C15.193277,13.38805 15.5046284,13.5081429 15.8156757,13.5081429 C16.126723,13.5081429 16.4380743,13.38805 16.6755405,13.1481714 L22.1926014,7.57537143 C22.2500676,7.51762857 22.3011486,7.45374286 22.3464527,7.38555714 C22.3625676,7.36129286 22.3729054,7.33487857 22.3868919,7.31 C22.4124324,7.26546429 22.4385811,7.22154286 22.4580405,7.17393571 C22.471723,7.14045714 22.4787162,7.10544286 22.4896622,7.07104286 C22.5027365,7.02896429 22.5182432,6.98811429 22.5267568,6.9445 C22.5386149,6.88399286 22.5425676,6.82256429 22.5453041,6.76082857 C22.5462162,6.74209286 22.5510811,6.72427857 22.5510811,6.70523571 C22.5510811,6.68803571 22.5465203,6.67237143 22.5459122,6.65547857 C22.5431757,6.5919 22.539223,6.52832143 22.5270608,6.46566429 C22.5191554,6.4242 22.5042568,6.3855 22.4917905,6.34587857 C22.4808446,6.30902143 22.4729392,6.27185714 22.4583446,6.23592143 C22.4401014,6.19169286 22.415473,6.15145714 22.3926689,6.10999286 C22.3768581,6.08142857 22.3646959,6.05163571 22.3464527,6.0243 C22.3020608,5.95672857 22.2515878,5.89376429 22.1950338,5.83663571 L22.1947297,5.83663571 L16.6758446,0.2623 C16.2009122,-0.217457143 15.4307432,-0.217457143 14.9558108,0.2623 C14.4808784,0.742057143 14.4808784,1.52005 14.9558108,1.99980714 L18.3977027,5.47697143 L12.7720946,5.47697143 C8.73456081,5.47697143 5.44956081,8.79534286 5.44956081,12.8742 L5.44956081,12.8742 Z" id="Shape"></path>
                            <path d="M21.3342568,13.3094214 C20.6626014,13.3094214 20.1180405,13.8595143 20.1180405,14.5379929 L20.1180405,17.4048643 L20.1180405,18.3167714 L20.1180405,19.08125 L2.48290541,19.08125 L2.48290541,2.45714286 L3.49692568,2.45714286 L4.40878378,2.45714286 L10.1353378,2.45714286 C10.8069932,2.45714286 11.3515541,1.90705 11.3515541,1.22857143 C11.3515541,0.550092857 10.8069932,0 10.1353378,0 L4.30783784,0 L3.49692568,0 L2.48290541,0 C1.13959459,0 0.050472973,1.10018571 0.050472973,2.45714286 L0.050472973,19.08125 C0.050472973,20.4382071 1.13959459,21.5383929 2.48290541,21.5383929 L20.1180405,21.5383929 C21.4613514,21.5383929 22.550473,20.4382071 22.550473,19.08125 L22.550473,18.3167714 L22.550473,17.4048643 L22.550473,14.5379929 C22.550473,13.8595143 22.0059122,13.3094214 21.3342568,13.3094214 L21.3342568,13.3094214 Z" id="Shape"></path>
                        </g>
                    </g>
                </g>
            </g>
        </g>
    </g>
</svg>