<?xml version="1.0" encoding="UTF-8" standalone="no"?>
<svg width="30px" height="30px" viewBox="0 0 30 30" version="1.1" xmlns="http://www.w3.org/2000/svg" xmlns:xlink="http://www.w3.org/1999/xlink" xmlns:sketch="http://www.bohemiancoding.com/sketch/ns">
    <!-- Generator: Sketch 3.0.4 (8054) - http://www.bohemiancoding.com/sketch -->
    <title>btn-pinterest 2</title>
    <desc>Created with Sketch.</desc>
    <defs></defs>
    <g id="Quadrinhos" stroke="none" stroke-width="1" fill="none" fill-rule="evenodd" sketch:type="MSPage">
        <g id="Social-1" sketch:type="MSLayerGroup" transform="translate(-165.000000, 0.000000)">
            <g id="btn-pinterest-2" transform="translate(165.000000, 0.000000)" sketch:type="MSShapeGroup">
                <g id="Rectangle-74-+-1408691824_33-pinterest">
                    <rect id="Rectangle-74" fill="#CC2127" x="0" y="0" width="30" height="30"></rect>
                    <g id="1408691824_33-pinterest" transform="translate(9.000000, 7.500000)" fill="#F2F2F2">
                        <path d="M6.26892308,-0.1134 C2.08861538,-0.1134 -0.0193846154,2.8086 -0.0193846154,5.2458 C-0.0193846154,6.7212 0.553538462,8.0337 1.78215385,8.5224 C1.98369231,8.6034 2.16430769,8.5254 2.22276923,8.3079 C2.26338462,8.1579 2.35969231,7.7781 2.40246154,7.6194 C2.46123077,7.4043 2.43846154,7.3293 2.27569231,7.1412 C1.92153846,6.7341 1.69476923,6.2067 1.69476923,5.4591 C1.69476923,3.2913 3.35846154,1.3506 6.02676923,1.3506 C8.38953846,1.3506 9.68769231,2.7582 9.68769231,4.6377 C9.68769231,7.1115 8.56492308,9.1992 6.89846154,9.1992 C5.97784615,9.1992 5.28923077,8.4573 5.50953846,7.5468 C5.77384615,6.4599 6.28615385,5.2875 6.28615385,4.5024 C6.28615385,3.8004 5.89938462,3.2148 5.09969231,3.2148 C4.15876923,3.2148 3.40276923,4.164 3.40276923,5.4351 C3.40276923,6.2448 3.68338462,6.7926 3.68338462,6.7926 C3.68338462,6.7926 2.72061538,10.7706 2.55169231,11.4672 C2.21569231,12.8547 2.50123077,14.5551 2.52553846,14.7267 C2.53969231,14.8287 2.67384615,14.8533 2.73476923,14.7765 C2.82123077,14.6658 3.94246154,13.317 4.32307692,11.9688 C4.43107692,11.5875 4.94184615,9.6111 4.94184615,9.6111 C5.24769231,10.1799 6.14123077,10.6797 7.09138462,10.6797 C9.91938462,10.6797 11.8384615,8.166 11.8384615,4.8012 C11.8387692,2.2563 9.62830769,-0.1134 6.26892308,-0.1134 L6.26892308,-0.1134 Z" id="Shape"></path>
                    </g>
                </g>
            </g>
        </g>
    </g>
</svg>