<?xml version="1.0" encoding="UTF-8" standalone="no"?>
<svg width="30px" height="30px" viewBox="0 0 30 30" version="1.1" xmlns="http://www.w3.org/2000/svg" xmlns:xlink="http://www.w3.org/1999/xlink" xmlns:sketch="http://www.bohemiancoding.com/sketch/ns">
    <!-- Generator: Sketch 3.0.4 (8054) - http://www.bohemiancoding.com/sketch -->
    <title>Rectangle 78 + link</title>
    <desc>Created with Sketch.</desc>
    <defs></defs>
    <g id="Patterns" stroke="none" stroke-width="1" fill="none" fill-rule="evenodd" sketch:type="MSPage">
        <g id="Desktop" sketch:type="MSArtboardGroup" transform="translate(-337.000000, -6182.000000)">
            <g id="Rectangle-78-+-link" sketch:type="MSLayerGroup" transform="translate(337.000000, 6182.000000)">
                <rect id="Rectangle-78" fill="#494E52" sketch:type="MSShapeGroup" x="0" y="0" width="30" height="30" rx="4"></rect>
                <g id="link" transform="translate(5.000000, 5.000000)" fill="#F3F3F3" sketch:type="MSShapeGroup">
                    <path d="M7,16.9230769 C5.84615385,18.0769231 4,18.1538462 2.92307692,17.0769231 C1.84615385,16 1.92307692,14.1538462 3.07692308,13 L6.69230769,9.38461538 C5.15384615,9.07692308 3.61538462,9.53846154 2.38461538,10.6923077 L1.38461538,11.6923077 C-0.461538462,13.5384615 -0.461538462,16.6153846 1.46153846,18.5384615 C3.38461538,20.4615385 6.46153846,20.4615385 8.30769231,18.6153846 L9.30769231,17.6153846 C10.4615385,16.4615385 10.9230769,14.8461538 10.6153846,13.3846154 L7,16.9230769 L7,16.9230769 Z M5.84615385,14.1538462 C6.15384615,14.3846154 6.46153846,14.5384615 6.84615385,14.5384615 C7.23076923,14.5384615 7.53846154,14.3846154 7.76923077,14.1538462 L13.8461538,8.07692308 C14.3846154,7.53846154 14.3846154,6.69230769 13.7692308,6.15384615 C13.2307692,5.61538462 12.3846154,5.61538462 11.8461538,6.15384615 L5.76923077,12.2307692 C5.30769231,12.7692308 5.30769231,13.6153846 5.84615385,14.1538462 L5.84615385,14.1538462 Z M18.5384615,1.46153846 C16.6153846,-0.461538462 13.5384615,-0.461538462 11.6923077,1.38461538 L10.6923077,2.38461538 C9.53846154,3.53846154 9.07692308,5.15384615 9.38461538,6.61538462 L13,3 C14.1538462,1.84615385 16,1.76923077 17.0769231,2.84615385 C18.1538462,3.92307692 18.0769231,5.76923077 16.9230769,6.92307692 L13.3076923,10.5384615 C14.8461538,10.8461538 16.3846154,10.3846154 17.6153846,9.23076923 L18.6153846,8.23076923 C20.4615385,6.38461538 20.4615385,3.38461538 18.5384615,1.46153846 L18.5384615,1.46153846 Z" id="Link_1_"></path>
                </g>
            </g>
        </g>
    </g>
</svg>