<?xml version="1.0" encoding="UTF-8" standalone="no"?>
<svg width="30px" height="30px" viewBox="0 0 30 30" version="1.1" xmlns="http://www.w3.org/2000/svg" xmlns:xlink="http://www.w3.org/1999/xlink" xmlns:sketch="http://www.bohemiancoding.com/sketch/ns">
    <!-- Generator: Sketch 3.0.4 (8054) - http://www.bohemiancoding.com/sketch -->
    <title>Rectangle 77 + twitter</title>
    <desc>Created with Sketch.</desc>
    <defs></defs>
    <g id="Patterns" stroke="none" stroke-width="1" fill="none" fill-rule="evenodd" sketch:type="MSPage">
        <g id="Desktop" sketch:type="MSArtboardGroup" transform="translate(-293.000000, -6182.000000)">
            <g id="Rectangle-77-+-twitter" sketch:type="MSLayerGroup" transform="translate(293.000000, 6182.000000)">
                <rect id="Rectangle-77" fill="#494E52" sketch:type="MSShapeGroup" x="0" y="0" width="30" height="30" rx="4"></rect>
                <g id="twitter" transform="translate(5.500000, 7.500000)" fill="#F3F3F3" sketch:type="MSShapeGroup">
                    <path d="M17.146,3.9005 C17.155,4.069 17.1585,4.239 17.1585,4.4095 C17.1585,9.6115 13.199,15.6095 5.9585,15.6095 C3.736,15.6095 1.6665,14.958 -0.0765,13.841 C0.23,13.875 0.545,13.8965 0.8625,13.8965 C2.707,13.8965 4.404,13.2665 5.752,12.21 C4.0275,12.1795 2.575,11.04 2.0735,9.4765 C2.314,9.5225 2.561,9.548 2.8125,9.548 C3.1725,9.548 3.5205,9.499 3.85,9.4095 C2.049,9.046 0.6915,7.457 0.6915,5.548 L0.6915,5.499 C1.2225,5.793 1.83,5.97 2.475,5.99 C1.419,5.284 0.725,4.078 0.725,2.713 C0.725,1.992 0.919,1.3165 1.258,0.735 C3.198,3.1165 6.0995,4.683 9.3715,4.847 C9.3035,4.56 9.2705,4.258 9.2705,3.9495 C9.2705,1.7775 11.0325,0.015 13.2055,0.015 C14.3385,0.015 15.362,0.493 16.08,1.2565 C16.9755,1.081 17.819,0.7535 18.5795,0.302 C18.285,1.2205 17.6605,1.992 16.849,2.479 C17.6445,2.385 18.402,2.1735 19.109,1.859 C18.5825,2.6525 17.916,3.3455 17.146,3.9005 L17.146,3.9005 Z" id="Shape"></path>
                </g>
            </g>
        </g>
    </g>
</svg>