<?xml version="1.0" encoding="UTF-8" standalone="no"?>
<svg width="77px" height="21px" viewBox="0 0 77 21" version="1.1" xmlns="http://www.w3.org/2000/svg" xmlns:xlink="http://www.w3.org/1999/xlink" xmlns:sketch="http://www.bohemiancoding.com/sketch/ns">
    <!-- Generator: Sketch 3.1.1 (8761) - http://www.bohemiancoding.com/sketch -->
    <title>Rectangle 232 + seta 2</title>
    <desc>Created with Sketch.</desc>
    <defs></defs>
    <g id="Autor" stroke="none" stroke-width="1" fill="none" fill-rule="evenodd" sketch:type="MSPage">
        <g id="Desktop" sketch:type="MSArtboardGroup" transform="translate(-1083.000000, -1332.000000)" fill="#252525">
            <g id="Rectangle-232-+-seta-2" sketch:type="MSLayerGroup" transform="translate(1083.000000, 1327.000000)">
                <g id="Rectangle-232-+-Topo" font-size="20" font-family="Hind" sketch:type="MSTextLayer" font-weight="526">
                    <text id="Topo">
                        <tspan x="0" y="21">Topo</tspan>
                    </text>
                </g>
                <g id="seta" transform="translate(69.500000, 15.500000) rotate(90.000000) translate(-69.500000, -15.500000) translate(59.000000, 8.000000)" sketch:type="MSShapeGroup">
                    <path d="M19.357679,6.18732955 L4.72093827,6.18732955 L8.63437037,2.32789773 C9.17432099,1.79539773 9.17432099,0.931875 8.63437037,0.399375 C8.09441975,-0.133125 7.21881481,-0.133125 6.6788642,0.399375 L0.405135802,6.58653409 L0.405135802,6.58653409 C0.340839506,6.64994318 0.28345679,6.72017045 0.232641975,6.79482955 C0.211901235,6.82517045 0.198074074,6.85857955 0.180098765,6.88994318 C0.15417284,6.93596591 0.12617284,6.980625 0.105432099,7.02971591 C0.0888395062,7.06960227 0.0798518519,7.11085227 0.0670617284,7.15176136 C0.0532345679,7.19573864 0.0362962963,7.23869318 0.026962963,7.28471591 C0.0131358025,7.35426136 0.0082962963,7.42482955 0.0055308642,7.49539773 C0.00483950617,7.51414773 4.97379915e-14,7.53153409 4.97379915e-14,7.550625 C4.97379915e-14,7.57176136 0.0055308642,7.59153409 0.00622222222,7.61232955 C0.00933333333,7.68051136 0.0134814815,7.74869318 0.027308642,7.81619318 C0.0369876543,7.86494318 0.054617284,7.90994318 0.0694814815,7.95664773 C0.0815802469,7.99482955 0.0898765432,8.03369318 0.105432099,8.07085227 C0.127555556,8.12369318 0.157283951,8.17278409 0.185975309,8.221875 C0.201876543,8.24948864 0.213975309,8.27880682 0.231950617,8.30573864 C0.283111111,8.38176136 0.341530864,8.45232955 0.406864198,8.51642045 L6.6788642,14.701875 C6.94883951,14.968125 7.30281481,15.1014205 7.65679012,15.1014205 C8.01076543,15.1014205 8.36439506,14.968125 8.63471605,14.701875 C9.17466667,14.169375 9.17466667,13.3058523 8.63471605,12.7736932 L4.72128395,8.91460227 L19.357679,8.91460227 C20.121284,8.91460227 20.7403951,8.30403409 20.7403951,7.55096591 C20.7403951,6.79789773 20.121284,6.18732955 19.357679,6.18732955 L19.357679,6.18732955 Z" id="Shape"></path>
                </g>
            </g>
        </g>
    </g>
</svg>