<?xml version="1.0" encoding="UTF-8" standalone="no"?>
<svg width="40px" height="40px" viewBox="0 0 40 40" version="1.1" xmlns="http://www.w3.org/2000/svg" xmlns:xlink="http://www.w3.org/1999/xlink" xmlns:sketch="http://www.bohemiancoding.com/sketch/ns">
    <!-- Generator: Sketch 3.0.4 (8054) - http://www.bohemiancoding.com/sketch -->
    <title>Rectangle 232 + seta 2</title>
    <desc>Created with Sketch.</desc>
    <defs></defs>
    <g id="Patterns" stroke="none" stroke-width="1" fill="none" fill-rule="evenodd" sketch:type="MSPage">
        <g id="Desktop" sketch:type="MSArtboardGroup" transform="translate(-2621.000000, -751.000000)">
            <g id="Footer" sketch:type="MSLayerGroup" transform="translate(1467.000000, 623.000000)">
                <rect id="fundo" fill="#323232" sketch:type="MSShapeGroup" x="0" y="53" width="1366" height="200"></rect>
                <g id="Rectangle-232-+-seta-2" transform="translate(1154.000000, 128.000000)" sketch:type="MSShapeGroup">
                    <rect id="Rectangle-232" fill="#F5F5D7" x="0" y="0" width="40" height="40" rx="8"></rect>
                    <g id="seta" transform="translate(20.000000, 20.000000) rotate(90.000000) translate(-20.000000, -20.000000) translate(6.666667, 10.000000)" fill="#252525">
                        <path d="M24.8384444,8.15010606 L6.01977778,8.15010606 L11.0513333,3.00419697 C11.7455556,2.29419697 11.7455556,1.14283333 11.0513333,0.432833333 C10.3571111,-0.277166667 9.23133333,-0.277166667 8.53711111,0.432833333 L0.470888889,8.68237879 L0.470888889,8.68237879 C0.388222222,8.76692424 0.314444444,8.86056061 0.249111111,8.96010606 C0.222444444,9.00056061 0.204666667,9.04510606 0.181555556,9.08692424 C0.148222222,9.14828788 0.112222222,9.20783333 0.0855555556,9.27328788 C0.0642222222,9.3264697 0.0526666667,9.3814697 0.0362222222,9.43601515 C0.0184444444,9.49465152 -0.00333333333,9.55192424 -0.0153333333,9.61328788 C-0.0331111111,9.70601515 -0.0393333333,9.80010606 -0.0428888889,9.89419697 C-0.0437777778,9.91919697 -0.05,9.94237879 -0.05,9.96783333 C-0.05,9.99601515 -0.0428888889,10.0223788 -0.042,10.0501061 C-0.038,10.1410152 -0.0326666667,10.2319242 -0.0148888889,10.3219242 C-0.00244444444,10.3869242 0.0202222222,10.4469242 0.0393333333,10.509197 C0.0548888889,10.5601061 0.0655555556,10.6119242 0.0855555556,10.6614697 C0.114,10.7319242 0.152222222,10.7973788 0.189111111,10.8628333 C0.209555556,10.8996515 0.225111111,10.9387424 0.248222222,10.9746515 C0.314,11.0760152 0.389111111,11.1701061 0.473111111,11.2555606 L8.53711111,19.5028333 C8.88422222,19.8578333 9.33933333,20.0355606 9.79444444,20.0355606 C10.2495556,20.0355606 10.7042222,19.8578333 11.0517778,19.5028333 C11.746,18.7928333 11.746,17.6414697 11.0517778,16.9319242 L6.02022222,11.7864697 L24.8384444,11.7864697 C25.8202222,11.7864697 26.6162222,10.9723788 26.6162222,9.96828788 C26.6162222,8.96419697 25.8202222,8.15010606 24.8384444,8.15010606 L24.8384444,8.15010606 Z" id="Shape"></path>
                    </g>
                </g>
            </g>
        </g>
    </g>
</svg>