<?xml version="1.0" encoding="UTF-8" standalone="no"?>
<svg width="120px" height="20px" viewBox="0 0 120 20" version="1.1" xmlns="http://www.w3.org/2000/svg" xmlns:xlink="http://www.w3.org/1999/xlink" xmlns:sketch="http://www.bohemiancoding.com/sketch/ns">
    <!-- Generator: Sketch 3.0.4 (8054) - http://www.bohemiancoding.com/sketch -->
    <title>Slice 2</title>
    <desc>Created with Sketch.</desc>
    <defs></defs>
    <g id="Page-1" stroke="none" stroke-width="1" fill="none" fill-rule="evenodd" sketch:type="MSPage">
        <g id="estrelas" sketch:type="MSLayerGroup">
            <g id="star" fill="#30302A" sketch:type="MSShapeGroup">
                <path d="M21.2200533,7.48395833 C20.9124267,6.56520833 20.03968,5.93416667 19.0485333,5.91291667 L14.3978667,5.82125 L12.8712533,1.529375 C12.54144,0.614791667 11.65632,0 10.6670933,0 C9.67509333,0 8.78954667,0.615833333 8.46293333,1.5325 L6.93504,5.82125 L2.28458667,5.91291667 C1.29237333,5.93395833 0.420053333,6.565625 0.111146667,7.48958333 C-0.19136,8.41395833 0.136106667,9.42604167 0.92416,10.0064583 L4.62933333,12.7514583 L3.28384,17.0977083 C2.99648,18.025625 3.34293333,19.0320833 4.14549333,19.60125 C4.93632,20.1620833 6.05589333,20.17125 6.8512,19.6275 L10.6673067,17.03625 L14.4861867,19.6295833 C14.8829867,19.8966667 15.3437867,20.038125 15.8176,20.038125 C16.3063467,20.038125 16.77952,19.8883333 17.18912,19.601875 C17.9901867,19.0335417 18.33664,18.0283333 18.0509867,17.0977083 L16.704,12.7514583 L20.4106667,10.0070833 C21.2,9.42208333 21.5253333,8.41 21.2200533,7.48395833 L21.2200533,7.48395833 Z" id="Shape"></path>
            </g>
            <g id="star" transform="translate(24.666667, 0.000000)" fill="#30302A" sketch:type="MSShapeGroup">
                <path d="M21.2200533,7.48395833 C20.9124267,6.56520833 20.03968,5.93416667 19.0485333,5.91291667 L14.3978667,5.82125 L12.8712533,1.529375 C12.54144,0.614791667 11.65632,0 10.6670933,0 C9.67509333,0 8.78954667,0.615833333 8.46293333,1.5325 L6.93504,5.82125 L2.28458667,5.91291667 C1.29237333,5.93395833 0.420053333,6.565625 0.111146667,7.48958333 C-0.19136,8.41395833 0.136106667,9.42604167 0.92416,10.0064583 L4.62933333,12.7514583 L3.28384,17.0977083 C2.99648,18.025625 3.34293333,19.0320833 4.14549333,19.60125 C4.93632,20.1620833 6.05589333,20.17125 6.8512,19.6275 L10.6673067,17.03625 L14.4861867,19.6295833 C14.8829867,19.8966667 15.3437867,20.038125 15.8176,20.038125 C16.3063467,20.038125 16.77952,19.8883333 17.18912,19.601875 C17.9901867,19.0335417 18.33664,18.0283333 18.0509867,17.0977083 L16.704,12.7514583 L20.4106667,10.0070833 C21.2,9.42208333 21.5253333,8.41 21.2200533,7.48395833 L21.2200533,7.48395833 Z" id="Shape"></path>
            </g>
            <g id="star" transform="translate(98.666667, 0.000000)" fill="#000000" sketch:type="MSShapeGroup">
                <path d="M21.2200533,7.48395833 C20.9124267,6.56520833 20.03968,5.93416667 19.0485333,5.91291667 L14.3978667,5.82125 L12.8712533,1.529375 C12.54144,0.614791667 11.65632,0 10.6670933,0 C9.67509333,0 8.78954667,0.615833333 8.46293333,1.5325 L6.93504,5.82125 L2.28458667,5.91291667 C1.29237333,5.93395833 0.420053333,6.565625 0.111146667,7.48958333 C-0.19136,8.41395833 0.136106667,9.42604167 0.92416,10.0064583 L4.62933333,12.7514583 L3.28384,17.0977083 C2.99648,18.025625 3.34293333,19.0320833 4.14549333,19.60125 C4.93632,20.1620833 6.05589333,20.17125 6.8512,19.6275 L10.6673067,17.03625 L14.4861867,19.6295833 C14.8829867,19.8966667 15.3437867,20.038125 15.8176,20.038125 C16.3063467,20.038125 16.77952,19.8883333 17.18912,19.601875 C17.9901867,19.0335417 18.33664,18.0283333 18.0509867,17.0977083 L16.704,12.7514583 L20.4106667,10.0070833 C21.2,9.42208333 21.5253333,8.41 21.2200533,7.48395833 L21.2200533,7.48395833 Z M19.3066667,8.585625 L14.58688,12.0802083 L16.30208,17.6114583 C16.3656533,17.8185417 16.2926933,18.0333333 16.12096,18.1547917 C15.9392,18.2808333 15.7041067,18.281875 15.5266133,18.1629167 L10.6670933,14.8639583 L5.80608,18.1645833 C5.63285333,18.2829167 5.39050667,18.280625 5.21898667,18.1585417 C5.04192,18.0327083 4.96874667,17.8189583 5.03232,17.6139583 L6.74517333,12.0802083 L2.02645333,8.58479167 C1.85514667,8.458125 1.78474667,8.23625 1.84981333,8.03770833 C1.91637333,7.83833333 2.10709333,7.70083333 2.32277333,7.69625 L8.24256,7.579375 L10.18816,2.11791667 C10.2594133,1.918125 10.45184,1.78375 10.6673067,1.78375 C10.8823467,1.78375 11.0756267,1.91916667 11.14688,2.11791667 L13.0897067,7.579375 L19.0107733,7.69625 C19.2266667,7.70083333 19.4171733,7.83833333 19.48288,8.035 C19.5483733,8.23395833 19.47584,8.46020833 19.3066667,8.585625 L19.3066667,8.585625 Z" id="Shape"></path>
            </g>
            <g id="star" transform="translate(74.000000, 0.000000)" fill="#000000" sketch:type="MSShapeGroup">
                <path d="M21.2200533,7.48395833 C20.9124267,6.56520833 20.03968,5.93416667 19.0485333,5.91291667 L14.3978667,5.82125 L12.8712533,1.529375 C12.54144,0.614791667 11.65632,0 10.6670933,0 C9.67509333,0 8.78954667,0.615833333 8.46293333,1.5325 L6.93504,5.82125 L2.28458667,5.91291667 C1.29237333,5.93395833 0.420053333,6.565625 0.111146667,7.48958333 C-0.19136,8.41395833 0.136106667,9.42604167 0.92416,10.0064583 L4.62933333,12.7514583 L3.28384,17.0977083 C2.99648,18.025625 3.34293333,19.0320833 4.14549333,19.60125 C4.93632,20.1620833 6.05589333,20.17125 6.8512,19.6275 L10.6673067,17.03625 L14.4861867,19.6295833 C14.8829867,19.8966667 15.3437867,20.038125 15.8176,20.038125 C16.3063467,20.038125 16.77952,19.8883333 17.18912,19.601875 C17.9901867,19.0335417 18.33664,18.0283333 18.0509867,17.0977083 L16.704,12.7514583 L20.4106667,10.0070833 C21.2,9.42208333 21.5253333,8.41 21.2200533,7.48395833 L21.2200533,7.48395833 Z M19.3066667,8.585625 L14.58688,12.0802083 L16.30208,17.6114583 C16.3656533,17.8185417 16.2926933,18.0333333 16.12096,18.1547917 C15.9392,18.2808333 15.7041067,18.281875 15.5266133,18.1629167 L10.6670933,14.8639583 L5.80608,18.1645833 C5.63285333,18.2829167 5.39050667,18.280625 5.21898667,18.1585417 C5.04192,18.0327083 4.96874667,17.8189583 5.03232,17.6139583 L6.74517333,12.0802083 L2.02645333,8.58479167 C1.85514667,8.458125 1.78474667,8.23625 1.84981333,8.03770833 C1.91637333,7.83833333 2.10709333,7.70083333 2.32277333,7.69625 L8.24256,7.579375 L10.18816,2.11791667 C10.2594133,1.918125 10.45184,1.78375 10.6673067,1.78375 C10.8823467,1.78375 11.0756267,1.91916667 11.14688,2.11791667 L13.0897067,7.579375 L19.0107733,7.69625 C19.2266667,7.70083333 19.4171733,7.83833333 19.48288,8.035 C19.5483733,8.23395833 19.47584,8.46020833 19.3066667,8.585625 L19.3066667,8.585625 Z" id="Shape"></path>
            </g>
            <g id="star" transform="translate(49.333333, 0.000000)" fill="#30302A" sketch:type="MSShapeGroup">
                <path d="M21.2200533,7.48395833 C20.9124267,6.56520833 20.03968,5.93416667 19.0485333,5.91291667 L14.3978667,5.82125 L12.8712533,1.529375 C12.54144,0.614791667 11.65632,0 10.6670933,0 C9.67509333,0 8.78954667,0.615833333 8.46293333,1.5325 L6.93504,5.82125 L2.28458667,5.91291667 C1.29237333,5.93395833 0.420053333,6.565625 0.111146667,7.48958333 C-0.19136,8.41395833 0.136106667,9.42604167 0.92416,10.0064583 L4.62933333,12.7514583 L3.28384,17.0977083 C2.99648,18.025625 3.34293333,19.0320833 4.14549333,19.60125 C4.93632,20.1620833 6.05589333,20.17125 6.8512,19.6275 L10.6673067,17.03625 L14.4861867,19.6295833 C14.8829867,19.8966667 15.3437867,20.038125 15.8176,20.038125 C16.3063467,20.038125 16.77952,19.8883333 17.18912,19.601875 C17.9901867,19.0335417 18.33664,18.0283333 18.0509867,17.0977083 L16.704,12.7514583 L20.4106667,10.0070833 C21.2,9.42208333 21.5253333,8.41 21.2200533,7.48395833 L21.2200533,7.48395833 Z" id="Shape"></path>
            </g>
        </g>
    </g>
</svg>