<?xml version="1.0" encoding="UTF-8" standalone="no"?>
<svg width="30px" height="30px" viewBox="0 0 30 30" version="1.1" xmlns="http://www.w3.org/2000/svg" xmlns:xlink="http://www.w3.org/1999/xlink" xmlns:sketch="http://www.bohemiancoding.com/sketch/ns">
    <!-- Generator: Sketch 3.0.4 (8054) - http://www.bohemiancoding.com/sketch -->
    <title>Carregando</title>
    <desc>Created with Sketch.</desc>
    <defs></defs>
    <g id="Quadrinhos" stroke="none" stroke-width="1" fill="none" fill-rule="evenodd" sketch:type="MSPage">
        <g id="Desktop" sketch:type="MSArtboardGroup" transform="translate(-742.000000, -1448.000000)" fill="#C0C0C0">
            <g id="Carregando" sketch:type="MSLayerGroup" transform="translate(742.000000, 1448.000000)">
                <g id="Group" sketch:type="MSShapeGroup">
                    <g id="Shape">
                        <g transform="translate(13.636364, 0.000000)">
                            <path d="M2.67409091,7.80886364 C2.67409091,8.53227273 2.08568182,9.11795455 1.36363636,9.11795455 L1.36363636,9.11795455 C0.639545455,9.11795455 0.0531818182,8.53227273 0.0531818182,7.80886364 L0.0531818182,1.37454545 C0.0531818182,0.649772727 0.639545455,0.0654545455 1.36363636,0.0654545455 L1.36363636,0.0654545455 C2.08568182,0.0654545455 2.67409091,0.649772727 2.67409091,1.37454545 L2.67409091,7.80886364 L2.67409091,7.80886364 Z"></path>
                            <path d="M2.67409091,28.6240909 C2.67409091,29.3475 2.08568182,29.9345455 1.36363636,29.9345455 L1.36363636,29.9345455 C0.639545455,29.9345455 0.0531818182,29.3475 0.0531818182,28.6240909 L0.0531818182,22.1918182 C0.0531818182,21.4670455 0.639545455,20.8813636 1.36363636,20.8813636 L1.36363636,20.8813636 C2.08568182,20.8813636 2.67409091,21.4670455 2.67409091,22.1918182 L2.67409091,28.6240909 L2.67409091,28.6240909 Z"></path>
                        </g>
                        <g transform="translate(0.000000, 13.636364)">
                            <path d="M7.8075,0.0545454545 C8.53227273,0.0545454545 9.11795455,0.6375 9.11795455,1.36227273 L9.11795455,1.36227273 C9.11795455,2.08704545 8.53227273,2.67409091 7.8075,2.67409091 L1.37386364,2.67409091 C0.650454545,2.67409091 0.0647727273,2.08704545 0.0647727273,1.36227273 L0.0647727273,1.36227273 C0.0647727273,0.6375 0.650454545,0.0545454545 1.37386364,0.0545454545 L7.8075,0.0545454545 L7.8075,0.0545454545 Z"></path>
                            <path d="M28.6240909,0.0545454545 C29.3475,0.0545454545 29.9345455,0.6375 29.9345455,1.36227273 L29.9345455,1.36227273 C29.9345455,2.08704545 29.3475,2.67409091 28.6240909,2.67409091 L22.1931818,2.67409091 C21.4684091,2.67409091 20.88,2.08704545 20.88,1.36227273 L20.88,1.36227273 C20.88,0.6375 21.4684091,0.0545454545 22.1931818,0.0545454545 L28.6240909,0.0545454545 L28.6240909,0.0545454545 Z"></path>
                        </g>
                    </g>
                    <g transform="translate(4.090909, 4.090909)" id="Shape">
                        <g>
                            <path d="M6.75068182,4.89681818 C7.26272727,5.40681818 7.26204545,6.23795455 6.75068182,6.74931818 L6.75068182,6.74931818 C6.23795455,7.26204545 5.40818182,7.26204545 4.89613636,6.75068182 L0.347727273,2.20159091 C-0.163636364,1.68886364 -0.163636364,0.860454545 0.347727273,0.346363636 L0.347727273,0.346363636 C0.859090909,-0.165 1.6875,-0.165 2.20022727,0.346363636 L6.75068182,4.89681818 L6.75068182,4.89681818 Z"></path>
                            <path d="M21.4690909,19.6165909 C21.9818182,20.1279545 21.9818182,20.9590909 21.4704545,21.4718182 L21.4704545,21.4718182 C20.9577273,21.9818182 20.1293182,21.9818182 19.6165909,21.4677273 L15.0681818,16.9227273 C14.5568182,16.41 14.5568182,15.5775 15.0681818,15.0675 L15.0681818,15.0675 C15.5795455,14.5547727 16.4106818,14.5547727 16.9220455,15.0675 L21.4690909,19.6165909 L21.4690909,19.6165909 Z"></path>
                        </g>
                        <g>
                            <path d="M4.89613636,15.0681818 C5.40818182,14.5554545 6.23795455,14.5554545 6.75068182,15.0681818 L6.75068182,15.0681818 C7.26204545,15.5781818 7.26272727,16.4106818 6.75068182,16.9234091 L2.20022727,21.4725 C1.68954545,21.9825 0.859090909,21.9825 0.347727273,21.4684091 L0.347727273,21.4684091 C-0.163636364,20.9570455 -0.163636364,20.1286364 0.347727273,19.6172727 L4.89613636,15.0681818 L4.89613636,15.0681818 Z"></path>
                            <path d="M19.6165909,0.346363636 C20.1293182,-0.165 20.9577273,-0.165 21.4690909,0.346363636 L21.4690909,0.346363636 C21.9818182,0.857727273 21.9818182,1.69022727 21.4704545,2.20159091 L16.9213636,6.75 C16.41,7.26136364 15.5788636,7.26136364 15.0675,6.74863636 L15.0675,6.74863636 C14.5561364,6.23727273 14.5561364,5.40613636 15.0675,4.89613636 L19.6165909,0.346363636 L19.6165909,0.346363636 Z"></path>
                        </g>
                    </g>
                </g>
            </g>
        </g>
    </g>
</svg>