<?xml version="1.0" encoding="UTF-8" standalone="no"?>
<svg width="126px" height="100px" viewBox="0 0 126 100" version="1.1" xmlns="http://www.w3.org/2000/svg" xmlns:xlink="http://www.w3.org/1999/xlink" xmlns:sketch="http://www.bohemiancoding.com/sketch/ns">
    <!-- Generator: Sketch 3.1 (8751) - http://www.bohemiancoding.com/sketch -->
    <title>megaphone</title>
    <desc>Created with Sketch.</desc>
    <defs></defs>
    <g id="Sobre" stroke="none" stroke-width="1" fill="none" fill-rule="evenodd" sketch:type="MSPage">
        <g id="Desktop" sketch:type="MSArtboardGroup" transform="translate(-634.000000, -1452.000000)" fill="#6B6B6B">
            <g id="divulgar" sketch:type="MSLayerGroup" transform="translate(560.000000, 1452.000000)">
                <g id="megaphone" transform="translate(74.000000, 0.000000)" sketch:type="MSShapeGroup">
                    <g id="Your_Icon" transform="translate(-0.502970, 0.000000)">
                        <g id="Group">
                            <path d="M121.229673,0.791 C98.7881446,13.188 71.222103,19.65075 34.475596,21.133 C32.6412634,21.2065 31.1959782,22.70625 31.1959782,24.528 L31.1959782,59.73625 C31.1959782,61.55975 32.6412634,63.056 34.475596,63.13125 C71.222103,64.6135 98.7881446,71.07625 121.229673,83.47325 C121.74723,83.75675 122.319358,83.90025 122.889727,83.90025 C123.490022,83.90025 124.090317,83.7445 124.623717,83.43125 C125.667632,82.81875 126.308416,81.70575 126.308416,80.50175 L126.308416,3.76075 C126.310176,2.55675 125.669392,1.442 124.625477,0.83125 C123.581562,0.2205 122.289432,0.20475 121.229673,0.791 Z" id="Shape"></path>
                            <path d="M21.3043129,21.29925 C9.74907327,21.29925 0.34679802,30.64425 0.34679802,42.133 C0.34679802,53.62 9.74731287,62.965 21.3043129,62.965 C23.1932178,62.965 24.723002,61.44425 24.723002,59.56825 L24.723002,24.69775 C24.723002,22.82 23.1932178,21.29925 21.3043129,21.29925 L21.3043129,21.29925 Z" id="Shape"></path>
                            <path d="M47.6081505,72.25225 C47.0360218,70.581 45.499196,69.4295 43.7247168,69.34025 L35.7325188,68.95 C34.3189208,68.887 32.9475723,69.50825 32.0832178,70.6335 C31.2188634,71.75525 30.9653663,73.22875 31.4054653,74.571 L38.5826,97.89325 C39.1617703,99.666 40.8218238,100.8665 42.6966455,100.8665 L50.9916317,100.8665 C50.9951525,100.86475 50.9986733,100.86475 51.0021941,100.8665 C53.3928119,100.8665 55.3292475,98.938 55.3292475,96.56675 C55.3292475,95.96825 55.2060198,95.3995 54.9859703,94.88325 L47.6081505,72.25225 L47.6081505,72.25225 Z" id="Shape"></path>
                        </g>
                    </g>
                </g>
            </g>
        </g>
    </g>
</svg>