<?xml version="1.0" encoding="UTF-8" standalone="no"?>
<svg width="147px" height="102px" viewBox="0 0 147 102" version="1.1" xmlns="http://www.w3.org/2000/svg" xmlns:xlink="http://www.w3.org/1999/xlink" xmlns:sketch="http://www.bohemiancoding.com/sketch/ns">
    <!-- Generator: Sketch 3.0.4 (8054) - http://www.bohemiancoding.com/sketch -->
    <title>icn</title>
    <desc>Created with Sketch.</desc>
    <defs></defs>
    <g id="Home" stroke="none" stroke-width="1" fill="none" fill-rule="evenodd" sketch:type="MSPage">
        <g id="Desktop" sketch:type="MSArtboardGroup" transform="translate(-228.000000, -299.000000)" fill="#6B6B6B">
            <g id="icn-1" sketch:type="MSLayerGroup" transform="translate(177.000000, 300.000000)">
                <g id="icn" transform="translate(51.000000, 0.000000)" sketch:type="MSShapeGroup">
                    <g id="Group">
                        <path d="M125.559894,-0.122042663 C127.286362,-0.122042663 128.681298,1.26334842 128.681298,2.97453135 L128.681298,41.3760827 L94.4850319,41.3760827 C91.7295638,41.3760827 89.4917234,43.5992243 89.4917234,46.3296703 L89.4917234,84.1106658 L76.2867447,84.1106658 L81.7194894,98.1150614 C81.7194894,99.275501 80.7733723,100.214092 79.6020638,100.214092 L49.1511702,100.214092 C47.9845532,100.214092 47.0353085,99.2770524 47.0353085,98.1150614 L52.4664894,84.1106658 L3.1917766,84.1106658 C1.46687234,84.1106658 0.0719361702,82.7221719 0.0719361702,81.0140918 L0.0719361702,2.97297996 C0.0719361702,1.26334842 1.46687234,-0.122042663 3.1917766,-0.122042663 L125.559894,-0.122042663 Z" id="Shape"></path>
                        <g transform="translate(92.265957, 44.149968)" id="Shape">
                            <path d="M35.3081489,53.5865546 C35.3081489,55.2977376 36.7062128,56.68468 38.4295532,56.68468 L51.5407021,56.68468 C53.2671702,56.68468 54.6621064,55.2961862 54.6621064,53.5865546 L54.6621064,25.0968326 C54.6621064,23.387201 53.2656064,21.9987072 51.5407021,21.9987072 L38.4295532,21.9987072 C36.7046489,21.9987072 35.3081489,23.3887524 35.3081489,25.0968326 L35.3081489,53.5865546 L35.3081489,53.5865546 Z"></path>
                            <path d="M32.918617,55.2884292 C32.7450319,54.7392372 32.6558936,54.1636716 32.6558936,53.5865546 L32.6558936,25.0968326 C32.6558936,21.9366516 35.2455957,19.3675501 38.4295532,19.3675501 L43.8920106,19.3675501 L43.8920106,2.17970265 C43.8920106,0.899806076 42.841117,-0.14272786 41.5525213,-0.14272786 L2.21907447,-0.14272786 C0.930478723,-0.14272786 -0.121978723,0.898254686 -0.121978723,2.17970265 L-0.121978723,52.9675501 C-0.121978723,54.2474467 0.930478723,55.2884292 2.21907447,55.2884292 L32.918617,55.2884292 L32.918617,55.2884292 Z"></path>
                        </g>
                    </g>
                </g>
            </g>
        </g>
    </g>
</svg>