<?xml version="1.0" encoding="UTF-8" standalone="no"?>
<svg width="64px" height="100px" viewBox="0 0 64 100" version="1.1" xmlns="http://www.w3.org/2000/svg" xmlns:xlink="http://www.w3.org/1999/xlink" xmlns:sketch="http://www.bohemiancoding.com/sketch/ns">
    <!-- Generator: Sketch 3.1 (8751) - http://www.bohemiancoding.com/sketch -->
    <title>tag</title>
    <desc>Created with Sketch.</desc>
    <defs></defs>
    <g id="Sobre" stroke="none" stroke-width="1" fill="none" fill-rule="evenodd" sketch:type="MSPage">
        <g id="Desktop" sketch:type="MSArtboardGroup" transform="translate(-1067.000000, -778.000000)" fill="#6B6B6B">
            <g id="salve" sketch:type="MSLayerGroup" transform="translate(975.000000, 778.000000)">
                <g id="tag" transform="translate(92.000000, 0.000000)" sketch:type="MSShapeGroup">
                    <path d="M35.174,0 L4.285,0 C1.948,0 0.054,1.894 0.054,4.231 L0.054,95.627 C0.054,97.965 1.949,99.858 4.285,99.858 C4.285,99.858 7.743,100.855 11.616,95.63 C15.594,90.263 27.134,71.931 27.134,71.931 C28.512,70.045 29.675,68.06 31.94,68.06 C34.205,68.06 35.566,69.931 36.866,71.931 C36.866,71.931 48.283,89.675 52.385,95.63 C56.221,101.199 59.715,99.858 59.715,99.858 C62.052,99.858 63.946,97.964 63.946,95.627 L63.946,4.231 C63.946,1.894 62.052,0 59.715,0 L28.827,0 L35.174,0 L35.174,0 Z" id="Shape"></path>
                </g>
            </g>
        </g>
    </g>
</svg>