<?xml version="1.0" encoding="UTF-8" standalone="no"?>
<svg width="40px" height="40px" viewBox="0 0 40 40" version="1.1" xmlns="http://www.w3.org/2000/svg" xmlns:xlink="http://www.w3.org/1999/xlink" xmlns:sketch="http://www.bohemiancoding.com/sketch/ns">
    <!-- Generator: Sketch 3.0.4 (8054) - http://www.bohemiancoding.com/sketch -->
    <title>normal</title>
    <desc>Created with Sketch.</desc>
    <defs></defs>
    <g id="Patterns" stroke="none" stroke-width="1" fill="none" fill-rule="evenodd" sketch:type="MSPage">
        <g id="Desktop" sketch:type="MSArtboardGroup" transform="translate(-2194.000000, -624.000000)">
            <g id="Footer" sketch:type="MSLayerGroup" transform="translate(1467.000000, 623.000000)">
                <g id="normal" transform="translate(727.000000, 1.000000)" sketch:type="MSShapeGroup">
                    <circle id="Oval-29" fill="#DD4B39" cx="20" cy="20" r="20"></circle>
                    <g id="google" transform="translate(10.000000, 11.000000)" fill="#F2F2F2">
                        <g id="Group">
                            <path d="M19.6872,7.53751111 L16.6824,7.53751111 L16.6824,4.36662222 C16.6824,4.12468889 16.4964,3.92793333 16.2676,3.92793333 L15.412,3.92793333 C15.1816,3.92793333 14.9956,4.12468889 14.9956,4.36662222 L14.9956,7.53751111 L11.9908,7.53751111 C11.762,7.53751111 11.5752,7.73468889 11.5752,7.97704444 L11.5752,8.88017778 C11.5752,9.12253333 11.762,9.31886667 11.9908,9.31886667 L14.9956,9.31886667 L14.9956,12.4914444 C14.9956,12.7338 15.1816,12.9301333 15.412,12.9301333 L16.2676,12.9301333 C16.4964,12.9301333 16.6824,12.7338 16.6824,12.4914444 L16.6824,9.31844444 L19.6872,9.31844444 C19.916,9.31844444 20.1028,9.12211111 20.1028,8.87975556 L20.1028,7.97662222 C20.1028,7.73426667 19.916,7.53751111 19.6872,7.53751111 L19.6872,7.53751111 Z" id="Shape"></path>
                            <path d="M9.5896,10.3182667 C8.9576,9.8458 8.3832,9.15293333 8.3732,8.94013333 C8.3732,8.55253333 8.406,8.36717778 9.2296,7.68993333 C10.2944,6.81002222 10.8808,5.65313333 10.8808,4.4308 C10.8808,3.32246667 10.56,2.33784444 10.014,1.64624444 L10.4376,1.64624444 C10.5252,1.64624444 10.6112,1.61753333 10.6812,1.56348889 L11.8632,0.659511111 C12.01,0.548466667 12.0716,0.350444444 12.0156,0.169311111 C11.9592,-0.0114 11.8008,-0.134688889 11.6204,-0.134688889 L6.334,-0.134688889 C5.7556,-0.134688889 5.168,-0.0270222222 4.5912,0.1824 C2.6648,0.883711111 1.3176,2.61651111 1.3176,4.39533333 C1.3176,6.91557778 3.1672,8.82571111 5.6396,8.88566667 C5.5912,9.08537778 5.5668,9.28213333 5.5668,9.47508889 C5.5668,9.86353333 5.66,10.2312889 5.852,10.5868 L5.784,10.5868 C3.4272,10.5868 1.3,11.8074444 0.4924,13.6238444 C0.282,14.0963111 0.1748,14.5738444 0.1748,15.0454667 C0.1748,15.504 0.2864,15.9452222 0.5052,16.3598444 C1.0128,17.3182889 2.1028,18.0618222 3.576,18.4544889 C4.3364,18.6571556 5.1536,18.7606 6.002,18.7606 C6.7644,18.7606 7.4912,18.6567333 8.1632,18.4515333 C10.2584,17.8093333 11.6132,16.1812444 11.6132,14.3019333 C11.6128,12.4986222 11.0636,11.419 9.5896,10.3182667 L9.5896,10.3182667 Z M2.9132,14.4463333 C2.9132,13.1344889 4.492,11.9839333 6.2916,11.9839333 L6.34,11.9839333 C6.7316,11.989 7.1136,12.0498 7.4736,12.1663333 C7.5972,12.2562667 7.7164,12.3419778 7.8308,12.4243111 C8.6644,13.0238667 9.2152,13.4194889 9.3684,14.0545111 C9.4044,14.2145333 9.4224,14.3745556 9.4224,14.5295111 C9.4224,16.1630889 8.2684,16.9910667 5.9912,16.9910667 C4.2652,16.9910667 2.9132,15.8738667 2.9132,14.4463333 L2.9132,14.4463333 Z M4.5508,2.05115556 C4.832,1.71211111 5.2004,1.53308889 5.614,1.53308889 L5.6608,1.53393333 C6.8292,1.57024444 7.9472,2.94457778 8.1528,4.59757778 C8.2684,5.52308889 8.0732,6.39328889 7.6324,6.9236 C7.3504,7.26348889 6.9872,7.44251111 6.5568,7.44251111 C6.5568,7.44251111 6.5568,7.44251111 6.556,7.44251111 L6.5372,7.44251111 C5.3928,7.40535556 4.2508,5.97866667 4.0464,4.32777778 C3.9316,3.4048 4.1156,2.57513333 4.5508,2.05115556 L4.5508,2.05115556 Z" id="Shape"></path>
                        </g>
                    </g>
                </g>
            </g>
        </g>
    </g>
</svg>