<?xml version="1.0" encoding="UTF-8" standalone="no"?>
<svg width="40px" height="40px" viewBox="0 0 40 40" version="1.1" xmlns="http://www.w3.org/2000/svg" xmlns:xlink="http://www.w3.org/1999/xlink" xmlns:sketch="http://www.bohemiancoding.com/sketch/ns">
    <!-- Generator: Sketch 3.0.4 (8054) - http://www.bohemiancoding.com/sketch -->
    <title>twitter</title>
    <desc>Created with Sketch.</desc>
    <defs></defs>
    <g id="Patterns" stroke="none" stroke-width="1" fill="none" fill-rule="evenodd" sketch:type="MSPage">
        <g id="Desktop" sketch:type="MSArtboardGroup" transform="translate(-2133.000000, -731.000000)">
            <g id="Footer" sketch:type="MSLayerGroup" transform="translate(1467.000000, 623.000000)">
                <rect id="fundo" fill="#323232" sketch:type="MSShapeGroup" x="0" y="53" width="1366" height="200"></rect>
                <g id="twitter" transform="translate(666.000000, 108.000000)" sketch:type="MSShapeGroup">
                    <g id="hover">
                        <path d="M20,40 C31.045695,40 40,31.045695 40,20 C40,8.954305 31.045695,0 20,0 C8.954305,0 0,8.954305 0,20 C0,31.045695 8.954305,40 20,40 Z" id="Oval-29" fill="#F3F3F3"></path>
                        <g id="twitter-3" transform="translate(10.000000, 12.000000)" fill="#252525">
                            <g id="twitter">
                                <path d="M18.0484211,4.27796774 C18.0578947,4.46277419 18.0615789,4.64922581 18.0615789,4.83622581 C18.0615789,10.5416452 13.8936842,17.1200968 6.27210526,17.1200968 C3.93263158,17.1200968 1.75421053,16.4055484 -0.0805263158,15.1804516 C0.242105263,15.2177419 0.573684211,15.2413226 0.907894737,15.2413226 C2.84947368,15.2413226 4.63578947,14.5503548 6.05473684,13.3916129 C4.23947368,13.3581613 2.71052632,12.1083871 2.18263158,10.3935806 C2.43578947,10.4440323 2.69578947,10.472 2.96052632,10.472 C3.33947368,10.472 3.70578947,10.4182581 4.05263158,10.3200968 C2.15684211,9.92141935 0.727894737,8.17864516 0.727894737,6.08490323 L0.727894737,6.03116129 C1.28684211,6.3536129 1.92631579,6.54774194 2.60526316,6.56967742 C1.49368421,5.79535484 0.763157895,4.47264516 0.763157895,2.97554839 C0.763157895,2.18477419 0.967368421,1.44390323 1.32421053,0.806129032 C3.36631579,3.41809677 6.42052632,5.13619355 9.86473684,5.31606452 C9.79315789,5.00129032 9.75842105,4.67006452 9.75842105,4.33170968 C9.75842105,1.94951613 11.6131579,0.0164516129 13.9005263,0.0164516129 C15.0931579,0.0164516129 16.1705263,0.540709677 16.9263158,1.37809677 C17.8689474,1.1856129 18.7568421,0.826419355 19.5573684,0.331225806 C19.2473684,1.3386129 18.59,2.18477419 17.7357895,2.71890323 C18.5731579,2.61580645 19.3705263,2.38383871 20.1147368,2.03890323 C19.5605263,2.90919355 18.8589474,3.66925806 18.0484211,4.27796774 L18.0484211,4.27796774 Z" id="Shape"></path>
                            </g>
                        </g>
                    </g>
                </g>
            </g>
        </g>
    </g>
</svg>